<mxfile host="app.diagrams.net" modified="2024-01-01T22:47:34.991Z" agent="Mozilla/5.0 (Windows NT 10.0; Win64; x64) AppleWebKit/537.36 (KHTML, like Gecko) Chrome/120.0.0.0 Safari/537.36" etag="tzM-DvySdPbpdsF8N5uC" version="22.1.16" type="github">
  <diagram name="Page-1" id="x_uMSooGgsukZ-Ix-U7x">
    <mxGraphModel dx="237" dy="237" grid="1" gridSize="10" guides="1" tooltips="1" connect="1" arrows="1" fold="1" page="1" pageScale="1" pageWidth="827" pageHeight="1169" math="0" shadow="0">
      <root>
        <mxCell id="0" />
        <mxCell id="1" parent="0" />
        <mxCell id="Omg0Aai6-efXcpIrVsby-10" value="" style="group" vertex="1" connectable="0" parent="1">
          <mxGeometry x="30" y="60" width="1550" height="940" as="geometry" />
        </mxCell>
        <mxCell id="Omg0Aai6-efXcpIrVsby-3" value="" style="rounded=0;whiteSpace=wrap;html=1;" vertex="1" parent="Omg0Aai6-efXcpIrVsby-10">
          <mxGeometry y="63.09" width="1550" height="746.91" as="geometry" />
        </mxCell>
        <mxCell id="Omg0Aai6-efXcpIrVsby-6" value="" style="rounded=0;whiteSpace=wrap;html=1;" vertex="1" parent="Omg0Aai6-efXcpIrVsby-10">
          <mxGeometry y="30" width="134" height="33.09" as="geometry" />
        </mxCell>
        <mxCell id="Omg0Aai6-efXcpIrVsby-4" value="&lt;pre style=&quot;box-sizing: border-box; border: 0px; font-variant-numeric: inherit; font-variant-east-asian: inherit; font-variant-alternates: inherit; font-variant-position: inherit; font-stretch: inherit; font-size: 13px; line-height: 19.5px; font-optical-sizing: inherit; font-kerning: inherit; font-feature-settings: inherit; font-variation-settings: inherit; vertical-align: baseline; cursor: text; counter-reset: list-0 0; text-align: left; color: rgb(52, 52, 52) !important; margin-top: 5px !important; margin-bottom: 5px !important; padding: 5px 10px !important; overflow: hidden !important; background: rgb(247, 247, 247) !important; border-radius: 4px !important;&quot;&gt;Fitness Web App&lt;/pre&gt;" style="text;html=1;align=center;verticalAlign=middle;resizable=0;points=[];autosize=1;strokeColor=none;fillColor=none;" vertex="1" parent="Omg0Aai6-efXcpIrVsby-10">
          <mxGeometry x="309" y="75.45454545454545" width="150" height="50" as="geometry" />
        </mxCell>
        <mxCell id="Omg0Aai6-efXcpIrVsby-17" value="" style="group" vertex="1" connectable="0" parent="Omg0Aai6-efXcpIrVsby-10">
          <mxGeometry x="60" y="230" width="270" height="460" as="geometry" />
        </mxCell>
        <mxCell id="Omg0Aai6-efXcpIrVsby-14" value="" style="rounded=0;whiteSpace=wrap;html=1;" vertex="1" parent="Omg0Aai6-efXcpIrVsby-17">
          <mxGeometry y="20" width="220" height="390" as="geometry" />
        </mxCell>
        <mxCell id="Omg0Aai6-efXcpIrVsby-16" value="" style="rounded=0;whiteSpace=wrap;html=1;" vertex="1" parent="Omg0Aai6-efXcpIrVsby-17">
          <mxGeometry width="100" height="20" as="geometry" />
        </mxCell>
        <mxCell id="Omg0Aai6-efXcpIrVsby-15" value="&lt;pre style=&quot;box-sizing: border-box; border: 0px; font-variant-numeric: inherit; font-variant-east-asian: inherit; font-variant-alternates: inherit; font-variant-position: inherit; font-stretch: inherit; line-height: 19.5px; font-optical-sizing: inherit; font-kerning: inherit; font-feature-settings: inherit; font-variation-settings: inherit; vertical-align: baseline; cursor: text; counter-reset: list-0 0; text-align: left; color: rgb(52, 52, 52) !important; margin-top: 5px !important; margin-bottom: 5px !important; padding: 5px 10px !important; overflow: hidden !important; background: rgb(247, 247, 247) !important; border-radius: 4px !important; font-size: 13px;&quot;&gt;User Interface&lt;br&gt;&lt;/pre&gt;" style="text;html=1;align=center;verticalAlign=middle;resizable=0;points=[];autosize=1;strokeColor=none;fillColor=none;fontSize=13;" vertex="1" parent="Omg0Aai6-efXcpIrVsby-17">
          <mxGeometry x="45" y="20" width="140" height="50" as="geometry" />
        </mxCell>
        <mxCell id="Omg0Aai6-efXcpIrVsby-21" value="" style="group" vertex="1" connectable="0" parent="Omg0Aai6-efXcpIrVsby-17">
          <mxGeometry x="40" y="70" width="120" height="60" as="geometry" />
        </mxCell>
        <mxCell id="Omg0Aai6-efXcpIrVsby-18" value="" style="rounded=0;whiteSpace=wrap;html=1;" vertex="1" parent="Omg0Aai6-efXcpIrVsby-21">
          <mxGeometry y="20" width="120" height="40" as="geometry" />
        </mxCell>
        <mxCell id="Omg0Aai6-efXcpIrVsby-19" value="&lt;span style=&quot;color: rgb(209, 100, 100); font-family: -apple-system, BlinkMacSystemFont, &amp;quot;Segoe UI&amp;quot;, roboto, &amp;quot;Helvetica Neue&amp;quot;, helvetica, arial, sans-serif; font-size: 14px; font-style: normal; font-variant-ligatures: normal; font-variant-caps: normal; font-weight: 400; letter-spacing: normal; orphans: 2; text-align: left; text-indent: 0px; text-transform: none; widows: 2; word-spacing: 0px; -webkit-text-stroke-width: 0px; background-color: rgb(247, 247, 247); text-decoration-thickness: initial; text-decoration-style: initial; text-decoration-color: initial; float: none; display: inline !important;&quot;&gt;Dashboard&lt;/span&gt;" style="text;whiteSpace=wrap;html=1;" vertex="1" parent="Omg0Aai6-efXcpIrVsby-21">
          <mxGeometry x="20" y="20" width="100" height="40" as="geometry" />
        </mxCell>
        <mxCell id="Omg0Aai6-efXcpIrVsby-20" value="" style="rounded=0;whiteSpace=wrap;html=1;" vertex="1" parent="Omg0Aai6-efXcpIrVsby-21">
          <mxGeometry width="35" height="20" as="geometry" />
        </mxCell>
        <mxCell id="Omg0Aai6-efXcpIrVsby-26" value="" style="group" vertex="1" connectable="0" parent="Omg0Aai6-efXcpIrVsby-17">
          <mxGeometry x="40" y="290" width="120" height="60" as="geometry" />
        </mxCell>
        <mxCell id="Omg0Aai6-efXcpIrVsby-27" value="" style="rounded=0;whiteSpace=wrap;html=1;" vertex="1" parent="Omg0Aai6-efXcpIrVsby-26">
          <mxGeometry y="20" width="120" height="40" as="geometry" />
        </mxCell>
        <mxCell id="Omg0Aai6-efXcpIrVsby-28" value="&lt;font color=&quot;#d16464&quot;&gt;ProfilePage&lt;/font&gt;" style="text;whiteSpace=wrap;html=1;" vertex="1" parent="Omg0Aai6-efXcpIrVsby-26">
          <mxGeometry x="20" y="20" width="100" height="40" as="geometry" />
        </mxCell>
        <mxCell id="Omg0Aai6-efXcpIrVsby-29" value="" style="rounded=0;whiteSpace=wrap;html=1;" vertex="1" parent="Omg0Aai6-efXcpIrVsby-26">
          <mxGeometry width="35" height="20" as="geometry" />
        </mxCell>
        <mxCell id="Omg0Aai6-efXcpIrVsby-22" value="" style="group" vertex="1" connectable="0" parent="Omg0Aai6-efXcpIrVsby-17">
          <mxGeometry x="40" y="180" width="120" height="60" as="geometry" />
        </mxCell>
        <mxCell id="Omg0Aai6-efXcpIrVsby-23" value="" style="rounded=0;whiteSpace=wrap;html=1;" vertex="1" parent="Omg0Aai6-efXcpIrVsby-22">
          <mxGeometry y="20" width="120" height="40" as="geometry" />
        </mxCell>
        <mxCell id="Omg0Aai6-efXcpIrVsby-24" value="&lt;font color=&quot;#d16464&quot;&gt;WorkoutDisplay&lt;/font&gt;" style="text;whiteSpace=wrap;html=1;" vertex="1" parent="Omg0Aai6-efXcpIrVsby-22">
          <mxGeometry x="20" y="20" width="100" height="40" as="geometry" />
        </mxCell>
        <mxCell id="Omg0Aai6-efXcpIrVsby-25" value="" style="rounded=0;whiteSpace=wrap;html=1;" vertex="1" parent="Omg0Aai6-efXcpIrVsby-22">
          <mxGeometry width="35" height="20" as="geometry" />
        </mxCell>
        <mxCell id="Omg0Aai6-efXcpIrVsby-34" value="" style="group" vertex="1" connectable="0" parent="Omg0Aai6-efXcpIrVsby-10">
          <mxGeometry x="340" y="230" width="270" height="460" as="geometry" />
        </mxCell>
        <mxCell id="Omg0Aai6-efXcpIrVsby-35" value="" style="rounded=0;whiteSpace=wrap;html=1;" vertex="1" parent="Omg0Aai6-efXcpIrVsby-34">
          <mxGeometry y="20" width="220" height="390" as="geometry" />
        </mxCell>
        <mxCell id="Omg0Aai6-efXcpIrVsby-36" value="" style="rounded=0;whiteSpace=wrap;html=1;" vertex="1" parent="Omg0Aai6-efXcpIrVsby-34">
          <mxGeometry width="100" height="20" as="geometry" />
        </mxCell>
        <mxCell id="Omg0Aai6-efXcpIrVsby-37" value="&lt;pre style=&quot;box-sizing: border-box; border: 0px; font-variant-numeric: inherit; font-variant-east-asian: inherit; font-variant-alternates: inherit; font-variant-position: inherit; font-stretch: inherit; line-height: 19.5px; font-optical-sizing: inherit; font-kerning: inherit; font-feature-settings: inherit; font-variation-settings: inherit; vertical-align: baseline; cursor: text; counter-reset: list-0 0; text-align: left; color: rgb(52, 52, 52) !important; margin-top: 5px !important; margin-bottom: 5px !important; padding: 5px 10px !important; overflow: hidden !important; background: rgb(247, 247, 247) !important; border-radius: 4px !important; font-size: 13px;&quot;&gt;Business Logic &lt;br&gt;&lt;/pre&gt;" style="text;html=1;align=center;verticalAlign=middle;resizable=0;points=[];autosize=1;strokeColor=none;fillColor=none;fontSize=13;" vertex="1" parent="Omg0Aai6-efXcpIrVsby-34">
          <mxGeometry x="40" y="20" width="150" height="50" as="geometry" />
        </mxCell>
        <mxCell id="Omg0Aai6-efXcpIrVsby-38" value="" style="group" vertex="1" connectable="0" parent="Omg0Aai6-efXcpIrVsby-34">
          <mxGeometry x="40" y="70" width="120" height="60" as="geometry" />
        </mxCell>
        <mxCell id="Omg0Aai6-efXcpIrVsby-39" value="" style="rounded=0;whiteSpace=wrap;html=1;" vertex="1" parent="Omg0Aai6-efXcpIrVsby-38">
          <mxGeometry y="20" width="120" height="40" as="geometry" />
        </mxCell>
        <mxCell id="Omg0Aai6-efXcpIrVsby-40" value="&lt;font color=&quot;#d16464&quot;&gt;WorkoutManager&lt;/font&gt;" style="text;whiteSpace=wrap;html=1;" vertex="1" parent="Omg0Aai6-efXcpIrVsby-38">
          <mxGeometry x="20" y="20" width="100" height="40" as="geometry" />
        </mxCell>
        <mxCell id="Omg0Aai6-efXcpIrVsby-41" value="" style="rounded=0;whiteSpace=wrap;html=1;" vertex="1" parent="Omg0Aai6-efXcpIrVsby-38">
          <mxGeometry width="35" height="20" as="geometry" />
        </mxCell>
        <mxCell id="Omg0Aai6-efXcpIrVsby-42" value="" style="group" vertex="1" connectable="0" parent="Omg0Aai6-efXcpIrVsby-34">
          <mxGeometry x="40" y="290" width="120" height="60" as="geometry" />
        </mxCell>
        <mxCell id="Omg0Aai6-efXcpIrVsby-43" value="" style="rounded=0;whiteSpace=wrap;html=1;" vertex="1" parent="Omg0Aai6-efXcpIrVsby-42">
          <mxGeometry y="20" width="120" height="40" as="geometry" />
        </mxCell>
        <mxCell id="Omg0Aai6-efXcpIrVsby-44" value="&lt;font color=&quot;#d16464&quot;&gt;ProgressTracker&lt;/font&gt;" style="text;whiteSpace=wrap;html=1;" vertex="1" parent="Omg0Aai6-efXcpIrVsby-42">
          <mxGeometry x="20" y="20" width="100" height="40" as="geometry" />
        </mxCell>
        <mxCell id="Omg0Aai6-efXcpIrVsby-45" value="" style="rounded=0;whiteSpace=wrap;html=1;" vertex="1" parent="Omg0Aai6-efXcpIrVsby-42">
          <mxGeometry width="35" height="20" as="geometry" />
        </mxCell>
        <mxCell id="Omg0Aai6-efXcpIrVsby-46" value="" style="group" vertex="1" connectable="0" parent="Omg0Aai6-efXcpIrVsby-34">
          <mxGeometry x="40" y="180" width="120" height="60" as="geometry" />
        </mxCell>
        <mxCell id="Omg0Aai6-efXcpIrVsby-47" value="" style="rounded=0;whiteSpace=wrap;html=1;" vertex="1" parent="Omg0Aai6-efXcpIrVsby-46">
          <mxGeometry y="20" width="120" height="40" as="geometry" />
        </mxCell>
        <mxCell id="Omg0Aai6-efXcpIrVsby-48" value="&lt;font color=&quot;#d16464&quot;&gt;NutritionCalculator&lt;/font&gt;" style="text;whiteSpace=wrap;html=1;" vertex="1" parent="Omg0Aai6-efXcpIrVsby-46">
          <mxGeometry x="20" y="20" width="100" height="40" as="geometry" />
        </mxCell>
        <mxCell id="Omg0Aai6-efXcpIrVsby-49" value="" style="rounded=0;whiteSpace=wrap;html=1;" vertex="1" parent="Omg0Aai6-efXcpIrVsby-46">
          <mxGeometry width="35" height="20" as="geometry" />
        </mxCell>
        <mxCell id="Omg0Aai6-efXcpIrVsby-84" value="" style="group" vertex="1" connectable="0" parent="Omg0Aai6-efXcpIrVsby-10">
          <mxGeometry x="930" y="220" width="270" height="460" as="geometry" />
        </mxCell>
        <mxCell id="Omg0Aai6-efXcpIrVsby-85" value="" style="rounded=0;whiteSpace=wrap;html=1;" vertex="1" parent="Omg0Aai6-efXcpIrVsby-84">
          <mxGeometry y="20" width="220" height="390" as="geometry" />
        </mxCell>
        <mxCell id="Omg0Aai6-efXcpIrVsby-86" value="" style="rounded=0;whiteSpace=wrap;html=1;" vertex="1" parent="Omg0Aai6-efXcpIrVsby-84">
          <mxGeometry width="100" height="20" as="geometry" />
        </mxCell>
        <mxCell id="Omg0Aai6-efXcpIrVsby-87" value="&lt;pre style=&quot;box-sizing: border-box; border: 0px; font-variant-numeric: inherit; font-variant-east-asian: inherit; font-variant-alternates: inherit; font-variant-position: inherit; font-stretch: inherit; line-height: 19.5px; font-optical-sizing: inherit; font-kerning: inherit; font-feature-settings: inherit; font-variation-settings: inherit; vertical-align: baseline; cursor: text; counter-reset: list-0 0; text-align: left; color: rgb(52, 52, 52) !important; margin-top: 5px !important; margin-bottom: 5px !important; padding: 5px 10px !important; overflow: hidden !important; background: rgb(247, 247, 247) !important; border-radius: 4px !important; font-size: 13px;&quot;&gt;Model&lt;br&gt;&lt;/pre&gt;" style="text;html=1;align=center;verticalAlign=middle;resizable=0;points=[];autosize=1;strokeColor=none;fillColor=none;fontSize=13;" vertex="1" parent="Omg0Aai6-efXcpIrVsby-84">
          <mxGeometry x="75" y="20" width="80" height="50" as="geometry" />
        </mxCell>
        <mxCell id="Omg0Aai6-efXcpIrVsby-88" value="" style="group" vertex="1" connectable="0" parent="Omg0Aai6-efXcpIrVsby-84">
          <mxGeometry x="40" y="70" width="120" height="60" as="geometry" />
        </mxCell>
        <mxCell id="Omg0Aai6-efXcpIrVsby-89" value="" style="rounded=0;whiteSpace=wrap;html=1;" vertex="1" parent="Omg0Aai6-efXcpIrVsby-88">
          <mxGeometry y="20" width="120" height="40" as="geometry" />
        </mxCell>
        <mxCell id="Omg0Aai6-efXcpIrVsby-90" value="&lt;font color=&quot;#d16464&quot;&gt;User&lt;/font&gt;" style="text;whiteSpace=wrap;html=1;" vertex="1" parent="Omg0Aai6-efXcpIrVsby-88">
          <mxGeometry x="20" y="20" width="100" height="40" as="geometry" />
        </mxCell>
        <mxCell id="Omg0Aai6-efXcpIrVsby-91" value="" style="rounded=0;whiteSpace=wrap;html=1;" vertex="1" parent="Omg0Aai6-efXcpIrVsby-88">
          <mxGeometry width="35" height="20" as="geometry" />
        </mxCell>
        <mxCell id="Omg0Aai6-efXcpIrVsby-92" value="" style="group" vertex="1" connectable="0" parent="Omg0Aai6-efXcpIrVsby-84">
          <mxGeometry x="40" y="290" width="120" height="60" as="geometry" />
        </mxCell>
        <mxCell id="Omg0Aai6-efXcpIrVsby-93" value="" style="rounded=0;whiteSpace=wrap;html=1;" vertex="1" parent="Omg0Aai6-efXcpIrVsby-92">
          <mxGeometry y="20" width="120" height="40" as="geometry" />
        </mxCell>
        <mxCell id="Omg0Aai6-efXcpIrVsby-94" value="&lt;font color=&quot;#d16464&quot;&gt;Nutritions&lt;/font&gt;" style="text;whiteSpace=wrap;html=1;" vertex="1" parent="Omg0Aai6-efXcpIrVsby-92">
          <mxGeometry x="20" y="20" width="100" height="40" as="geometry" />
        </mxCell>
        <mxCell id="Omg0Aai6-efXcpIrVsby-95" value="" style="rounded=0;whiteSpace=wrap;html=1;" vertex="1" parent="Omg0Aai6-efXcpIrVsby-92">
          <mxGeometry width="35" height="20" as="geometry" />
        </mxCell>
        <mxCell id="Omg0Aai6-efXcpIrVsby-96" value="" style="group" vertex="1" connectable="0" parent="Omg0Aai6-efXcpIrVsby-84">
          <mxGeometry x="40" y="180" width="120" height="60" as="geometry" />
        </mxCell>
        <mxCell id="Omg0Aai6-efXcpIrVsby-97" value="" style="rounded=0;whiteSpace=wrap;html=1;" vertex="1" parent="Omg0Aai6-efXcpIrVsby-96">
          <mxGeometry y="20" width="120" height="40" as="geometry" />
        </mxCell>
        <mxCell id="Omg0Aai6-efXcpIrVsby-98" value="&lt;font color=&quot;#d16464&quot;&gt;Workout&lt;/font&gt;" style="text;whiteSpace=wrap;html=1;" vertex="1" parent="Omg0Aai6-efXcpIrVsby-96">
          <mxGeometry x="20" y="20" width="100" height="40" as="geometry" />
        </mxCell>
        <mxCell id="Omg0Aai6-efXcpIrVsby-99" value="" style="rounded=0;whiteSpace=wrap;html=1;" vertex="1" parent="Omg0Aai6-efXcpIrVsby-96">
          <mxGeometry width="35" height="20" as="geometry" />
        </mxCell>
        <mxCell id="Omg0Aai6-efXcpIrVsby-68" value="" style="group" vertex="1" connectable="0" parent="Omg0Aai6-efXcpIrVsby-10">
          <mxGeometry x="630" y="230" width="270" height="460" as="geometry" />
        </mxCell>
        <mxCell id="Omg0Aai6-efXcpIrVsby-69" value="" style="rounded=0;whiteSpace=wrap;html=1;" vertex="1" parent="Omg0Aai6-efXcpIrVsby-68">
          <mxGeometry y="20" width="220" height="390" as="geometry" />
        </mxCell>
        <mxCell id="Omg0Aai6-efXcpIrVsby-70" value="" style="rounded=0;whiteSpace=wrap;html=1;" vertex="1" parent="Omg0Aai6-efXcpIrVsby-68">
          <mxGeometry width="100" height="20" as="geometry" />
        </mxCell>
        <mxCell id="Omg0Aai6-efXcpIrVsby-71" value="&lt;pre style=&quot;box-sizing: border-box; border: 0px; font-variant-numeric: inherit; font-variant-east-asian: inherit; font-variant-alternates: inherit; font-variant-position: inherit; font-stretch: inherit; line-height: 19.5px; font-optical-sizing: inherit; font-kerning: inherit; font-feature-settings: inherit; font-variation-settings: inherit; vertical-align: baseline; cursor: text; counter-reset: list-0 0; text-align: left; color: rgb(52, 52, 52) !important; margin-top: 5px !important; margin-bottom: 5px !important; padding: 5px 10px !important; overflow: hidden !important; background: rgb(247, 247, 247) !important; border-radius: 4px !important; font-size: 13px;&quot;&gt;Data Access&lt;br&gt;&lt;/pre&gt;" style="text;html=1;align=center;verticalAlign=middle;resizable=0;points=[];autosize=1;strokeColor=none;fillColor=none;fontSize=13;" vertex="1" parent="Omg0Aai6-efXcpIrVsby-68">
          <mxGeometry x="55" y="20" width="120" height="50" as="geometry" />
        </mxCell>
        <mxCell id="Omg0Aai6-efXcpIrVsby-72" value="" style="group" vertex="1" connectable="0" parent="Omg0Aai6-efXcpIrVsby-68">
          <mxGeometry x="40" y="70" width="120" height="60" as="geometry" />
        </mxCell>
        <mxCell id="Omg0Aai6-efXcpIrVsby-73" value="" style="rounded=0;whiteSpace=wrap;html=1;" vertex="1" parent="Omg0Aai6-efXcpIrVsby-72">
          <mxGeometry y="20" width="120" height="40" as="geometry" />
        </mxCell>
        <mxCell id="Omg0Aai6-efXcpIrVsby-74" value="&lt;font color=&quot;#d16464&quot;&gt;UserDataAccess&lt;/font&gt;" style="text;whiteSpace=wrap;html=1;" vertex="1" parent="Omg0Aai6-efXcpIrVsby-72">
          <mxGeometry x="20" y="20" width="100" height="40" as="geometry" />
        </mxCell>
        <mxCell id="Omg0Aai6-efXcpIrVsby-75" value="" style="rounded=0;whiteSpace=wrap;html=1;" vertex="1" parent="Omg0Aai6-efXcpIrVsby-72">
          <mxGeometry width="35" height="20" as="geometry" />
        </mxCell>
        <mxCell id="Omg0Aai6-efXcpIrVsby-76" value="" style="group" vertex="1" connectable="0" parent="Omg0Aai6-efXcpIrVsby-68">
          <mxGeometry x="40" y="290" width="140" height="60" as="geometry" />
        </mxCell>
        <mxCell id="Omg0Aai6-efXcpIrVsby-77" value="" style="rounded=0;whiteSpace=wrap;html=1;" vertex="1" parent="Omg0Aai6-efXcpIrVsby-76">
          <mxGeometry y="20" width="140" height="40" as="geometry" />
        </mxCell>
        <mxCell id="Omg0Aai6-efXcpIrVsby-78" value="&lt;font color=&quot;#d16464&quot;&gt;nutritionsDataAcsess&lt;/font&gt;" style="text;whiteSpace=wrap;html=1;" vertex="1" parent="Omg0Aai6-efXcpIrVsby-76">
          <mxGeometry x="20" y="20" width="100" height="40" as="geometry" />
        </mxCell>
        <mxCell id="Omg0Aai6-efXcpIrVsby-79" value="" style="rounded=0;whiteSpace=wrap;html=1;" vertex="1" parent="Omg0Aai6-efXcpIrVsby-76">
          <mxGeometry width="35" height="20" as="geometry" />
        </mxCell>
        <mxCell id="Omg0Aai6-efXcpIrVsby-80" value="" style="group" vertex="1" connectable="0" parent="Omg0Aai6-efXcpIrVsby-68">
          <mxGeometry x="40" y="180" width="150" height="60" as="geometry" />
        </mxCell>
        <mxCell id="Omg0Aai6-efXcpIrVsby-81" value="" style="rounded=0;whiteSpace=wrap;html=1;" vertex="1" parent="Omg0Aai6-efXcpIrVsby-80">
          <mxGeometry y="20" width="150" height="40" as="geometry" />
        </mxCell>
        <mxCell id="Omg0Aai6-efXcpIrVsby-82" value="&lt;font color=&quot;#d16464&quot;&gt;WorkoutDataAccess&lt;/font&gt;" style="text;whiteSpace=wrap;html=1;" vertex="1" parent="Omg0Aai6-efXcpIrVsby-80">
          <mxGeometry x="20" y="20" width="100" height="40" as="geometry" />
        </mxCell>
        <mxCell id="Omg0Aai6-efXcpIrVsby-83" value="" style="rounded=0;whiteSpace=wrap;html=1;" vertex="1" parent="Omg0Aai6-efXcpIrVsby-80">
          <mxGeometry width="35" height="20" as="geometry" />
        </mxCell>
        <mxCell id="Omg0Aai6-efXcpIrVsby-100" value="" style="group" vertex="1" connectable="0" parent="Omg0Aai6-efXcpIrVsby-10">
          <mxGeometry x="1211" y="220" width="270" height="460" as="geometry" />
        </mxCell>
        <mxCell id="Omg0Aai6-efXcpIrVsby-101" value="" style="rounded=0;whiteSpace=wrap;html=1;" vertex="1" parent="Omg0Aai6-efXcpIrVsby-100">
          <mxGeometry y="20" width="220" height="390" as="geometry" />
        </mxCell>
        <mxCell id="Omg0Aai6-efXcpIrVsby-102" value="" style="rounded=0;whiteSpace=wrap;html=1;" vertex="1" parent="Omg0Aai6-efXcpIrVsby-100">
          <mxGeometry width="100" height="20" as="geometry" />
        </mxCell>
        <mxCell id="Omg0Aai6-efXcpIrVsby-103" value="&lt;pre style=&quot;box-sizing: border-box; border: 0px; font-variant-numeric: inherit; font-variant-east-asian: inherit; font-variant-alternates: inherit; font-variant-position: inherit; font-stretch: inherit; line-height: 19.5px; font-optical-sizing: inherit; font-kerning: inherit; font-feature-settings: inherit; font-variation-settings: inherit; vertical-align: baseline; cursor: text; counter-reset: list-0 0; text-align: left; color: rgb(52, 52, 52) !important; margin-top: 5px !important; margin-bottom: 5px !important; padding: 5px 10px !important; overflow: hidden !important; background: rgb(247, 247, 247) !important; border-radius: 4px !important; font-size: 13px;&quot;&gt;Service&lt;br&gt;&lt;/pre&gt;" style="text;html=1;align=center;verticalAlign=middle;resizable=0;points=[];autosize=1;strokeColor=none;fillColor=none;fontSize=13;" vertex="1" parent="Omg0Aai6-efXcpIrVsby-100">
          <mxGeometry x="70" y="20" width="90" height="50" as="geometry" />
        </mxCell>
        <mxCell id="Omg0Aai6-efXcpIrVsby-104" value="" style="group" vertex="1" connectable="0" parent="Omg0Aai6-efXcpIrVsby-100">
          <mxGeometry x="40" y="70" width="150" height="60" as="geometry" />
        </mxCell>
        <mxCell id="Omg0Aai6-efXcpIrVsby-105" value="" style="rounded=0;whiteSpace=wrap;html=1;" vertex="1" parent="Omg0Aai6-efXcpIrVsby-104">
          <mxGeometry y="20" width="150" height="40" as="geometry" />
        </mxCell>
        <mxCell id="Omg0Aai6-efXcpIrVsby-106" value="&lt;font color=&quot;#d16464&quot;&gt;AuthenticationService&lt;/font&gt;" style="text;whiteSpace=wrap;html=1;" vertex="1" parent="Omg0Aai6-efXcpIrVsby-104">
          <mxGeometry x="20" y="20" width="100" height="40" as="geometry" />
        </mxCell>
        <mxCell id="Omg0Aai6-efXcpIrVsby-107" value="" style="rounded=0;whiteSpace=wrap;html=1;" vertex="1" parent="Omg0Aai6-efXcpIrVsby-104">
          <mxGeometry width="35" height="20" as="geometry" />
        </mxCell>
        <mxCell id="Omg0Aai6-efXcpIrVsby-112" value="" style="group" vertex="1" connectable="0" parent="Omg0Aai6-efXcpIrVsby-100">
          <mxGeometry x="40" y="180" width="140" height="60" as="geometry" />
        </mxCell>
        <mxCell id="Omg0Aai6-efXcpIrVsby-113" value="" style="rounded=0;whiteSpace=wrap;html=1;" vertex="1" parent="Omg0Aai6-efXcpIrVsby-112">
          <mxGeometry y="20" width="140" height="40" as="geometry" />
        </mxCell>
        <mxCell id="Omg0Aai6-efXcpIrVsby-114" value="&lt;font color=&quot;#d16464&quot;&gt;NotificationService&lt;/font&gt;" style="text;whiteSpace=wrap;html=1;" vertex="1" parent="Omg0Aai6-efXcpIrVsby-112">
          <mxGeometry x="20" y="20" width="100" height="40" as="geometry" />
        </mxCell>
        <mxCell id="Omg0Aai6-efXcpIrVsby-115" value="" style="rounded=0;whiteSpace=wrap;html=1;" vertex="1" parent="Omg0Aai6-efXcpIrVsby-112">
          <mxGeometry width="35" height="20" as="geometry" />
        </mxCell>
      </root>
    </mxGraphModel>
  </diagram>
</mxfile>
